<svg width="819" height="175" viewBox="0 0 819 175" fill="none" xmlns="http://www.w3.org/2000/svg">
<path fill-rule="evenodd" clip-rule="evenodd" d="M87.4156 166.75C43.7131 166.75 8.09237 131.128 8.09237 87.4143C8.09237 43.7142 43.7131 8.09303 87.4156 8.09303C131.126 8.09303 166.747 43.7142 166.747 87.4143C166.747 131.128 131.126 166.75 87.4156 166.75M87.4161 0C39.0799 0 0 39.0804 0 87.4143C0 135.748 39.0799 174.843 87.4161 174.843C135.75 174.843 174.841 135.748 174.841 87.4143C175.071 39.0804 135.75 0 87.4161 0" fill="white"/>
<path fill-rule="evenodd" clip-rule="evenodd" d="M125.028 126.601V43.8638C136.851 54.1825 143.888 69.2026 143.888 85.337C143.888 101.262 136.851 116.059 125.028 126.601V126.601ZM58.0035 101.039H117.078V69.2027H58.0035V101.039ZM49.8251 126.601C38.0015 116.282 30.9674 101.262 30.9674 85.114C30.9674 68.9796 38.0015 53.9595 49.8251 43.6408V126.601ZM122.984 32.208H117.077V61.3569H58.0025V32.208H51.869C34.3663 43.6409 23.0054 63.1532 23.0054 85.1141C23.0054 107.311 34.6031 126.601 51.869 138.034H58.0025V108.882H117.077V138.034H122.984C140.476 126.601 151.837 107.311 151.837 85.1141C151.837 63.1532 140.25 43.6409 122.984 32.208V32.208Z" fill="white"/>
<path fill-rule="evenodd" clip-rule="evenodd" d="M324.169 118.437H301.765V95.8435H323.682C334.762 95.8435 339.937 100.451 339.937 107.14C339.682 115.436 333.282 118.437 324.169 118.437V118.437ZM301.512 51.3577H323.927C330.826 51.3577 335.506 55.7334 335.506 62.1852C335.506 67.2594 331.069 72.7919 323.185 72.7919H301.269V51.3577H301.512ZM350.279 82.7026C350.279 82.7026 367.273 77.1673 367.273 59.1896C367.273 37.9845 351.262 27.6069 329.101 27.6069H271.467V142.635H334.265C353.484 142.635 372.692 129.963 372.692 110.6C372.451 87.5477 350.279 82.7026 350.279 82.7026V82.7026Z" fill="white"/>
<path fill-rule="evenodd" clip-rule="evenodd" d="M439.406 120.011C423.002 120.011 414.91 105.608 414.91 87.5311C414.91 69.6958 423.002 55.0544 439.406 55.0544C455.809 55.0544 464.13 69.4685 464.13 87.5311C464.13 105.38 455.809 120.011 439.406 120.011M439.406 27.6069C406.132 27.6069 386.494 53.9177 386.494 87.3037C386.494 120.931 406.132 147.236 439.406 147.236C472.905 147.236 492.318 120.931 492.318 87.3037C492.557 53.9177 473.144 27.6069 439.406 27.6069" fill="white"/>
<path fill-rule="evenodd" clip-rule="evenodd" d="M555.473 75.3187L551.136 74.3999C540.769 72.3467 532.818 69.8396 532.818 62.9852C532.818 55.4529 540.531 52.4892 547.522 52.4892C557.636 52.4892 566.314 57.2792 572.102 62.9852L590.656 45.4107C582.217 36.2761 568.239 27.6064 546.796 27.6064C521.739 27.8334 502.46 41.3014 502.46 63.677C502.46 83.9883 518.128 94.2685 536.92 97.9212L541.257 98.8316C556.922 102.031 562.699 104.311 562.699 111.392C562.699 118.006 556.199 122.58 546.558 122.58C534.757 122.58 524.152 117.779 516.2 107.963L496.921 125.768C507.526 137.647 520.778 147.236 547.034 147.236C569.69 147.236 593.544 135.129 593.544 110.022C593.306 83.7614 572.578 78.7472 555.473 75.3187" fill="white"/>
<path fill-rule="evenodd" clip-rule="evenodd" d="M665.694 119.783C652.096 119.783 637.764 109.267 637.764 86.6212C637.764 66.263 650.862 54.8265 664.705 54.8265C675.584 54.8265 682.012 59.634 687.207 67.6353L712.173 52.3119C699.819 34.9313 684.976 27.6064 664.705 27.6064C627.374 27.6064 607.348 54.3718 607.348 86.6212C607.348 120.476 629.85 147.236 664.461 147.236C688.941 147.236 700.564 139.223 713.173 122.533L687.952 106.744C683.001 114.293 677.562 119.783 665.694 119.783" fill="white"/>
<path fill-rule="evenodd" clip-rule="evenodd" d="M786.734 27.6064V70.0193H749.8V27.6064H717.775V142.635H749.8V97.2207H786.734V142.635H819V27.6064H786.734Z" fill="white"/>
</svg>
