<svg width="214" height="322" viewBox="0 0 214 322" fill="none" xmlns="http://www.w3.org/2000/svg">
<g clip-path="url(#clip0_152_51)">
<path d="M205.859 27.6822C206.004 28.3169 204.717 29.3324 204.391 29.6045C203.62 30.1741 202.801 30.6777 201.945 31.1097C200.083 32.0647 198.165 32.9064 196.202 33.6304C191.983 35.2048 187.683 36.5547 183.321 37.6744C174.063 40.1045 164.696 41.9724 155.276 43.6226C137.593 46.7418 119.838 49.063 101.975 50.7858C84.1237 52.6469 66.1871 53.567 48.2393 53.5423C39.3619 53.3791 25.3211 52.69 16.7517 49.0086C8.18226 45.3273 7.31266 39.4335 8.34534 31.019C8.69555 27.5336 9.30108 24.0788 10.1571 20.6822C10.9831 16.8744 13.2573 13.5378 16.4981 11.3791C24.0892 6.26511 39.1626 5.37648 47.2973 5.06819C65.2334 4.76816 83.1725 5.45835 101.033 7.13558C118.914 8.67703 136.705 10.7625 154.442 13.6097C163.501 15.0423 172.396 16.6744 181.274 18.7418C185.712 19.7755 190.115 20.8817 194.463 22.2781C196.601 22.9672 198.702 23.7107 200.786 24.5812C201.438 24.7806 205.587 26.6122 205.859 27.6822Z" fill="url(#paint0_linear_152_51)"/>
<path d="M13 298C11 229.5 6 125.999 2 45C12.5 80 212 43.9991 212.5 30.5C208.5 94.5 199.5 228.5 196 285C186 293.5 186.827 294.813 166.5 300.5C79 327.5 16 326.5 13 298Z" fill="url(#paint1_linear_152_51)" fill-opacity="0.5"/>
<path d="M205.974 27.6373C206.119 28.272 204.833 29.2875 204.506 29.5595C203.735 30.1292 202.917 30.6328 202.061 31.0648C200.199 32.0198 198.281 32.8615 196.317 33.5854C192.098 35.1599 187.798 36.5098 183.436 37.6295C174.178 40.0596 164.812 41.9274 155.391 43.5777C137.708 46.6969 119.954 49.0181 102.09 50.7409C84.2389 52.602 66.3023 53.522 48.3546 53.4974C39.4772 53.3342 25.4363 52.6451 16.8669 48.9637C8.29749 45.2824 7.4279 39.3886 8.46058 30.974C8.81078 27.4887 9.41632 24.0338 10.2723 20.6373C11.0983 16.8295 13.3725 13.4929 16.6133 11.3342C24.2044 6.22018 39.2779 5.33156 47.4125 5.02327C65.3487 4.72323 83.2877 5.41343 101.148 7.09066C119.03 8.63211 136.821 10.7176 154.557 13.5648C163.616 14.9974 172.512 16.6295 181.389 18.6969C185.828 19.7305 190.23 20.8368 194.578 22.2332C196.716 22.9223 198.818 23.6658 200.901 24.5362C201.553 24.7357 205.702 26.5673 205.974 27.6373Z" stroke="white" stroke-linecap="round" stroke-linejoin="round"/>
<path d="M12.5553 294.944L0.924072 37.7754" stroke="white" stroke-width="2" stroke-linecap="round" stroke-linejoin="round"/>
<path d="M213.094 28.5801L196.136 283.101" stroke="white" stroke-width="2" stroke-linecap="round" stroke-linejoin="round"/>
<path d="M12.5552 294.943C12.99 304.5 16.5047 311.264 25.364 315.689C33.0276 319.516 42.1949 320.549 50.4382 320.93C66.2363 321.673 86.2921 319.552 101.8 317.303C118.834 314.879 135.698 311.384 152.293 306.839C160.604 304.624 168.762 301.868 176.715 298.588C181.692 296.67 186.395 294.103 190.701 290.953C193.002 289.14 195.919 286.492 196.136 283.119" stroke="white" stroke-width="2" stroke-linecap="round" stroke-linejoin="round"/>
<path d="M0.924091 37.7743C0.892455 41.5473 2.34342 45.1816 4.96418 47.8935C8.9862 52.1371 14.9105 54.0775 20.2189 55.3288C29.474 57.2885 38.9133 58.243 48.373 58.1759C67.2673 58.1741 86.1481 57.1632 104.935 55.1474C123.759 53.334 142.455 50.7588 161.098 47.3314C170.392 45.6267 179.632 43.7044 188.763 41.22C194.825 39.7296 200.724 37.6399 206.373 34.9816C208.15 34.1551 209.798 33.0738 211.264 31.7718C212.246 30.9724 212.893 29.8335 213.076 28.5801" stroke="white" stroke-linecap="round" stroke-linejoin="round"/>
<path d="M213.094 28.5627C213.118 28.2395 213.088 27.9146 213.004 27.6016" stroke="white" stroke-linecap="round" stroke-linejoin="round"/>
<path d="M196.118 283.083C196.155 282.673 196.155 282.26 196.118 281.85" stroke="white" stroke-linecap="round" stroke-linejoin="round"/>
<path d="M213.004 27.6187C212.533 26.3238 211.656 25.2165 210.503 24.4632C208.78 23.2159 206.912 22.1809 204.941 21.3804C198.959 18.9022 192.769 16.9602 186.444 15.5772C176.751 13.2016 166.968 11.4063 157.112 9.81041C137.401 6.63684 117.617 4.37001 97.7059 2.79229C80.0597 1.37778 55.7646 0.035783 37.9192 1.63164C31.8782 2.04086 25.9001 3.11116 20.0919 4.82337C16.3008 5.8881 12.7553 7.68718 9.65641 10.1187C5.79226 13.3812 3.27462 17.9626 2.59073 22.9762C1.56302 27.8453 0.986893 32.7989 0.869629 37.7741" stroke="white" stroke-width="2" stroke-linecap="round" stroke-linejoin="round"/>
</g>
<defs>
<linearGradient id="paint0_linear_152_51" x1="107" y1="-20.5" x2="122" y2="49" gradientUnits="userSpaceOnUse">
<stop stop-color="#E9E9E9" stop-opacity="0.4"/>
<stop offset="1" stop-color="#202020" stop-opacity="0.48"/>
</linearGradient>
<linearGradient id="paint1_linear_152_51" x1="7.42526" y1="77.7729" x2="161.53" y2="320.91" gradientUnits="userSpaceOnUse">
<stop stop-color="#E9E9E9"/>
<stop offset="1" stop-color="#C4C4C4" stop-opacity="0"/>
</linearGradient>
<clipPath id="clip0_152_51">
<rect width="214" height="322" fill="white"/>
</clipPath>
</defs>
</svg>
