<svg width="396" height="287" viewBox="0 0 396 287" fill="none" xmlns="http://www.w3.org/2000/svg">
<path d="M9.5 88L14 67L20.5 63.5L195.5 59L372.5 61.5L382.5 64L386.5 86.5L384.5 88L395 139L392 185L384.5 225L378.5 238L353.5 259L331.5 269L295.5 274L239 280L195 286L170 283L136 280L81.5 274L50.5 263.5L34.5 253L14 233.5L6 196L1.5 139L9.5 88Z" fill="url(#paint0_linear_152_212)" fill-opacity="0.5"/>
<path d="M362.632 61.293L367.591 61.498" stroke="white" stroke-width="2" stroke-linecap="round" stroke-linejoin="round"/>
<path d="M31.8665 62.6588L35.1418 62.4765L36.8477 62.4082" stroke="white" stroke-width="2" stroke-linecap="round" stroke-linejoin="round"/>
<path d="M195 286L191.21 285.695L187.069 285.161L181.197 284.323L172.167 283.204L158.27 281.73L138.618 280.358L116.44 279.646L93.4663 277.511L71.3582 272.403L52.5487 264.88L37.693 256.188L25.3405 245.208L15 234" stroke="white" stroke-width="2" stroke-linecap="round" stroke-linejoin="round"/>
<path d="M380 236L369.523 246.383L357.205 256.422L342.837 264.761L325.222 271.125L302.75 274.456L278.527 276.225L256.054 278.177L237.127 279.969L223.703 281.646L214.723 283.001L208.852 283.966L204.707 284.586L201 285" stroke="white" stroke-width="2" stroke-linecap="round" stroke-linejoin="round"/>
<path d="M14.8301 64.709L14.2842 65.0051L14.0112 65.2556" stroke="white" stroke-width="2" stroke-linecap="round" stroke-linejoin="round"/>
<path d="M381.557 63.502L381.647 63.5475L381.92 63.7981" stroke="white" stroke-width="2" stroke-linecap="round" stroke-linejoin="round"/>
<path d="M20.3345 63.2276L22.2678 63.1137L26.9989 62.9087L31.8665 62.6582" stroke="white" stroke-width="2" stroke-linecap="round" stroke-linejoin="round"/>
<path d="M36.8479 62.4086L46.674 61.9303L61.0719 61.2925L78.586 60.7003L99.7393 60.2676L122.007 59.9715L142.865 59.7893L160.402 59.6298L172.684 59.4476L180.941 59.2426L186.4 59.0376L190.312 58.8782L193.929 58.7643L197.25 58.7188L200.57 58.7415L204.187 58.8326L208.099 58.9693L213.558 59.106L221.837 59.2426L234.143 59.3337L251.725 59.3565L272.606 59.3793L294.964 59.4932L316.254 59.7437L333.95 60.1992L348.598 60.7231L360.335 61.2014L362.632 61.2925" stroke="white" stroke-width="2" stroke-linecap="round" stroke-linejoin="round"/>
<path d="M367.591 61.498L368.683 61.5436L373.505 61.7258L375.87 61.8397L376.098 61.8853" stroke="white" stroke-width="2" stroke-linecap="round" stroke-linejoin="round"/>
<path d="M376.098 61.8848L376.803 61.9759L377.212 62.1581L378.122 62.477" stroke="white" stroke-width="2" stroke-linecap="round" stroke-linejoin="round"/>
<path d="M394.863 138.393L385.719 140.374L370.934 142.697L352.488 144.77L332.676 148.278L309.635 149.872L284.046 150.054L259.822 151.33L239.306 151.922L224.726 152.378L215.036 152.833L208.736 153.22L204.3 153.516L200.32 153.699L195.839 153.835L191.404 153.858L187.469 153.812L183.147 153.653L177.097 153.448L167.862 153.106L154.124 152.605L134.267 151.763L110.384 148.779L86.8197 146.774L64.0741 146.706L42.4204 144.77L24.4059 143.973L10.0535 142.037L1.13721 140.146" stroke="url(#paint1_linear_152_212)" stroke-linecap="round" stroke-linejoin="round"/>
<path d="M391.929 192.35L383.649 197.269L370.366 203.032L353.83 207.838L333.586 212.712L309.817 215.218L284.933 216.311L260.664 218.406L240.261 219.887L226.182 220.934L216.879 221.754L210.76 222.392L206.439 222.802L202.526 223.098L197.932 223.235L193.337 223.212L189.425 223.03L185.081 222.711L178.939 222.21L169.477 221.458L155.17 220.365L134.745 218.907L110.657 219.317L87.3656 219.044L63.9377 215.491L42.5797 210.73L25.748 205.127L12.6238 199.092L4.52637 194.263" stroke="url(#paint2_linear_152_212)" stroke-linecap="round" stroke-linejoin="round"/>
<path d="M362.632 61.2922L363.042 57.0785L363.929 48.4233L364.907 39.677L365.999 30.999L367.159 22.7994L368.319 15.3969L369.41 9.29276L370.388 4.98795L371.185 2.80138L371.594 1.91308L372.618 1.32089L373.891 1.13867" stroke="white" stroke-linecap="round" stroke-linejoin="round"/>
<path d="M14.8301 64.7079L15.012 63.0224L15.376 59.6515L15.7172 56.2805L16.0811 52.9095L16.4223 49.5614L16.7634 46.2359L17.1046 42.9333L17.4458 39.6535L17.787 36.3964L18.1282 33.1621L18.4466 29.9505L18.7878 26.7846L19.129 23.6414L19.4474 20.5437L19.7886 17.4916L20.1298 14.5079L20.471 11.6152" stroke="white" stroke-linecap="round" stroke-linejoin="round"/>
<path d="M20.3345 63.228L20.4027 62.6358L20.7439 59.2648L21.0851 55.8938L21.4035 52.5229L21.7447 49.1975L22.0631 45.8721L22.3816 42.5694L22.7 39.2896L23.0184 36.0325L23.3369 32.7982L23.6553 29.5866L23.9738 26.4207L24.2922 23.2775L24.5879 20.1798L24.9063 17.1277L25.202 14.3945" stroke="white" stroke-linecap="round" stroke-linejoin="round"/>
<path d="M13.147 65.8262L13.1927 65.712L13.2156 65.6435L13.2613 65.575L13.2841 65.5293" stroke="white" stroke-width="2" stroke-linecap="round" stroke-linejoin="round"/>
<path d="M9.1665 88.0541L9.48494 85.7764L10.0763 82.0866L10.0991 82.041" stroke="white" stroke-width="2" stroke-linecap="round" stroke-linejoin="round"/>
<path d="M11.7595 73.4099L12.4419 69.8112V69.7656" stroke="white" stroke-width="2" stroke-linecap="round" stroke-linejoin="round"/>
<path d="M382.785 64.2988V64.3672L382.921 64.8455L383.103 66.0526L383.513 68.262" stroke="white" stroke-width="2" stroke-linecap="round" stroke-linejoin="round"/>
<path d="M17.7415 63.9121L16.9682 63.9804L16.0356 64.2082L15.103 64.5726L14.8301 64.7093" stroke="white" stroke-width="2" stroke-linecap="round" stroke-linejoin="round"/>
<path d="M9.68962 89.8086L9.02999 93.9767L7.80173 101.971L6.41426 110.057L5.186 117.482L4.32167 123.154L3.20713 128.233L1.95613 132.811L1.22827 137.708V143.926L1.56945 150.873L1.8424 158.116L2.13809 165.223L2.45653 171.805L2.93419 178.023L3.52557 184.013L4.36716 189.958L5.39071 196.017L6.39151 202.098L7.61977 208.02L8.82528 213.76L10.1218 219.158L11.6002 224.306L13.2152 229.339L14.8074 234.35" stroke="white" stroke-width="2" stroke-linecap="round" stroke-linejoin="round"/>
<path d="M378.122 62.4766L378.918 62.5449L379.851 62.7727L380.806 63.1143L381.557 63.5015" stroke="white" stroke-width="2" stroke-linecap="round" stroke-linejoin="round"/>
<path d="M386.288 88.2363L386.947 92.3817L388.176 100.354L389.586 108.394L390.814 115.773L391.678 121.445L392.816 126.479L394.067 131.034L394.794 135.908L394.863 142.103L394.567 149.05L394.34 156.248L394.112 163.354L393.839 169.914L393.43 176.109L392.907 182.099L392.133 188.044L391.178 194.08L390.268 200.161L389.131 206.061L388.016 211.8L386.811 217.198L385.423 222.346L383.877 227.38L382.375 232.391L379.555 236.194" stroke="white" stroke-width="2" stroke-linecap="round" stroke-linejoin="round"/>
<path d="M386.288 86.5738H386.265L383.626 86.5054L378.713 86.3688L369.774 86.0271L357.56 85.5033L342.73 85.0933L323.851 84.82L301.105 84.6833L277.268 84.6605L255.046 84.7061L236.326 84.7289L223.179 84.615L214.331 84.4555L208.508 84.2733L204.414 84.1139L200.661 84.0228L197.249 84L193.837 84.0456L190.107 84.1822L186.013 84.3644L180.19 84.5922L171.388 84.82L158.263 85.025L139.567 85.1616L117.39 85.2983L93.6206 85.5033L71.0115 85.8221L52.3374 86.2549L37.7575 86.7788L25.7706 87.4165L16.9909 87.8037L12.2143 87.9859L9.64404 88.077" stroke="white" stroke-linecap="round" stroke-linejoin="round"/>
<path d="M9.68949 89.8085L9.53027 89.8768L9.18908 89.9679H9.07536L9.00712 89.8085L8.98438 89.7174L9.00712 89.2163L9.16634 88.0547" stroke="white" stroke-width="2" stroke-linecap="round" stroke-linejoin="round"/>
<path d="M17.7415 63.9118L18.6513 63.5702L19.0607 63.388L19.9478 63.2513L20.3344 63.2285" stroke="white" stroke-width="2" stroke-linecap="round" stroke-linejoin="round"/>
<path d="M381.921 63.7969L382.148 63.8652L382.489 63.9791L382.648 64.0702L382.717 64.1385" stroke="white" stroke-width="2" stroke-linecap="round" stroke-linejoin="round"/>
<path d="M382.717 64.1387V64.1844L382.785 64.2986" stroke="white" stroke-width="2" stroke-linecap="round" stroke-linejoin="round"/>
<path d="M13.147 65.8242L13.0333 66.3025L12.8286 67.5097L12.4419 69.7646" stroke="white" stroke-width="2" stroke-linecap="round" stroke-linejoin="round"/>
<path d="M10.0991 82.0426L10.8952 77.6922L11.7595 73.4102" stroke="white" stroke-width="2" stroke-linecap="round" stroke-linejoin="round"/>
<path d="M384.195 71.8613L385.059 76.1661L385.878 80.4937L386.47 84.1608L386.788 86.4385L386.97 87.6456L386.993 88.1467V88.2378L386.925 88.3973H386.788L386.47 88.3062L386.288 88.2378" stroke="white" stroke-width="2" stroke-linecap="round" stroke-linejoin="round"/>
<path d="M13.2834 65.5292L13.4427 65.4609L13.8066 65.3242L14.0113 65.2559" stroke="white" stroke-width="2" stroke-linecap="round" stroke-linejoin="round"/>
<path d="M383.513 68.2617L384.172 71.8832" stroke="white" stroke-width="2" stroke-linecap="round" stroke-linejoin="round"/>
<path d="M372.072 4.87359L371.708 3.07422" stroke="white" stroke-linecap="round" stroke-linejoin="round"/>
<path d="M25.2021 14.3945L25.7253 16.9683L27.0445 24.3708L28.2955 32.5932L29.4783 41.2711L30.5474 50.0402L31.4799 58.7182L31.8666 62.6585" stroke="white" stroke-linecap="round" stroke-linejoin="round"/>
<path d="M373.095 16.7871L372.094 23.1191L370.934 31.3187L369.843 39.9739L368.865 48.7202L367.977 57.3981L367.591 61.4979" stroke="white" stroke-linecap="round" stroke-linejoin="round"/>
<path d="M24.6789 2.3457L23.4507 2.71013L22.7683 2.96068" stroke="white" stroke-linecap="round" stroke-linejoin="round"/>
<path d="M26.2029 6.72007L26.5668 5.2168" stroke="white" stroke-linecap="round" stroke-linejoin="round"/>
<path d="M26.2029 6.71875L25.9072 8.49534" stroke="white" stroke-linecap="round" stroke-linejoin="round"/>
<path d="M21.2898 6.24045L21.4263 5.5116L21.9039 3.68945" stroke="white" stroke-linecap="round" stroke-linejoin="round"/>
<path d="M21.2898 6.21875L21.2443 6.44652L20.8349 8.86086L20.4709 11.6168" stroke="white" stroke-linecap="round" stroke-linejoin="round"/>
<path d="M25.2021 14.3953L25.2249 14.1447L25.5661 11.2521L25.9073 8.49609" stroke="white" stroke-linecap="round" stroke-linejoin="round"/>
<path d="M375.279 1.61719L375.665 1.73107L376.53 2.43715" stroke="white" stroke-linecap="round" stroke-linejoin="round"/>
<path d="M375.279 1.61698L375.097 1.48032L373.891 1.13867" stroke="white" stroke-linecap="round" stroke-linejoin="round"/>
<path d="M371.913 4.03085L371.89 4.00781" stroke="white" stroke-linecap="round" stroke-linejoin="round"/>
<path d="M373.095 16.7871L373.232 18.9281L373.459 22.003L373.664 25.1462L373.869 28.3122L374.096 31.5009L374.301 34.7124L374.505 37.9467L374.733 41.2266L374.938 44.5292L375.165 47.8319L375.37 51.1573L375.597 54.5055L375.825 57.8764L376.052 61.2474L376.098 61.8851" stroke="white" stroke-linecap="round" stroke-linejoin="round"/>
<path d="M26.5669 5.21602L27.2038 4.91992L28.1136 7.03816L29.2054 11.2291L30.4109 17.1966L31.6846 24.4396L32.9129 32.4798L34.0729 40.9756L35.1192 49.5852L36.0518 58.1265L36.4612 62.4313" stroke="white" stroke-linecap="round" stroke-linejoin="round"/>
<path d="M371.389 3.73633L370.639 5.83179L369.683 10.0227L368.592 15.9902L367.454 23.2105L366.34 31.2507L365.271 39.7237L364.315 48.3105L363.428 56.8518L362.996 61.3161" stroke="white" stroke-linecap="round" stroke-linejoin="round"/>
<path d="M28.3411 6.17188L29.4556 10.4995L30.7066 16.6036L32.0031 24.0061L33.2768 32.2285L34.4369 40.9065L35.5059 49.6755L36.4385 58.3535L36.8479 62.4078" stroke="white" stroke-linecap="round" stroke-linejoin="round"/>
<path d="M22.7684 2.96094L21.9041 3.68979" stroke="white" stroke-linecap="round" stroke-linejoin="round"/>
<path d="M26.9763 3.09734L25.9755 2.52792L24.679 2.3457" stroke="white" stroke-linecap="round" stroke-linejoin="round"/>
<path d="M26.9763 3.09766L27.4085 3.98595L28.3411 6.17252" stroke="white" stroke-linecap="round" stroke-linejoin="round"/>
<path d="M376.53 2.4375L376.894 4.28242L377.098 5.21627" stroke="white" stroke-linecap="round" stroke-linejoin="round"/>
<path d="M377.098 5.2168L377.394 7.60836L377.644 10.3644L377.894 13.2342L378.122 16.218L378.372 19.2473L378.6 22.3449L378.827 25.4654L379.055 28.6313L379.282 31.8201L379.509 35.0544L379.737 38.2887L379.964 41.5685L380.215 44.8484L380.442 48.1738L380.692 51.4992L380.92 54.8474L381.17 58.2184L381.42 61.5893L381.557 63.5026" stroke="white" stroke-linecap="round" stroke-linejoin="round"/>
<path d="M372.049 4.89648L372.345 7.28805L372.595 10.0213L372.822 12.9139L373.027 15.8749L373.095 16.786" stroke="white" stroke-linecap="round" stroke-linejoin="round"/>
<path d="M200.638 285.461L197.75 285.643L194.861 285.575" stroke="white" stroke-width="2" stroke-linecap="round" stroke-linejoin="round"/>
<path d="M1.5 139.5L9.5 91L200 83.5L386 87.5L394 138.5L354 145L315.5 150L287 151.5H260.5L195.5 155L126 151.5L81.5 147H56L1.5 139.5Z" fill="url(#paint3_linear_152_212)" fill-opacity="0.5"/>
<path d="M5 196.5L1.5 140L199 155L332.5 148.5L394 137.5L391.5 192L368 204.5L330.5 213L286 216.5L260.5 219L195.5 222.5L126 219H94L56 214.5L5 196.5Z" fill="url(#paint4_linear_152_212)" fill-opacity="0.5"/>
<defs>
<linearGradient id="paint0_linear_152_212" x1="-21.5" y1="150" x2="426.5" y2="150" gradientUnits="userSpaceOnUse">
<stop offset="0.0625" stop-color="#E9E9E9" stop-opacity="0"/>
<stop offset="0.491897" stop-color="white"/>
<stop offset="1" stop-color="#C4C4C4" stop-opacity="0"/>
</linearGradient>
<linearGradient id="paint1_linear_152_212" x1="1" y1="142.5" x2="406.5" y2="138" gradientUnits="userSpaceOnUse">
<stop stop-color="white" stop-opacity="0"/>
<stop offset="0.510417" stop-color="white"/>
<stop offset="1" stop-color="white" stop-opacity="0"/>
</linearGradient>
<linearGradient id="paint2_linear_152_212" x1="4.39136" y1="200.552" x2="403.416" y2="198.371" gradientUnits="userSpaceOnUse">
<stop stop-color="white" stop-opacity="0"/>
<stop offset="0.510417" stop-color="white"/>
<stop offset="1" stop-color="white" stop-opacity="0"/>
</linearGradient>
<linearGradient id="paint3_linear_152_212" x1="222.5" y1="81" x2="222.5" y2="155" gradientUnits="userSpaceOnUse">
<stop stop-color="#313131" stop-opacity="0.53"/>
<stop offset="1" stop-color="#D2D2D2" stop-opacity="0.79"/>
</linearGradient>
<linearGradient id="paint4_linear_152_212" x1="222.5" y1="148.5" x2="222.5" y2="222.5" gradientUnits="userSpaceOnUse">
<stop stop-color="#313131" stop-opacity="0.53"/>
<stop offset="1" stop-color="#D2D2D2" stop-opacity="0.79"/>
</linearGradient>
</defs>
</svg>
