<svg width="201" height="325" viewBox="0 0 201 325" fill="none" xmlns="http://www.w3.org/2000/svg">
<path d="M162.993 29.2429L162.901 29.2246" stroke="white" stroke-width="0.3" stroke-linecap="round" stroke-linejoin="round"/>
<path d="M189.041 76.7461L182.09 122.494L172.944 182.491L164.182 240.093L155.768 295.444L155.054 300.163L154.816 301.663L155.512 296.486" stroke="white" stroke-width="2" stroke-linecap="round" stroke-linejoin="round"/>
<path d="M83.5693 44.4984L86.4412 42.8887V43.8581" stroke="white" stroke-width="0.3" stroke-linecap="round" stroke-linejoin="round"/>
<path d="M117.867 44.699L114.995 43.0527L114.977 44.0222" stroke="white" stroke-width="0.3" stroke-linecap="round" stroke-linejoin="round"/>
<path d="M186.791 23.9206L186.114 28.5485L182.071 33.0849L174.7 37.3286L164.218 41.115L150.993 44.2246L135.537 46.5477L118.544 47.9379L100.727 48.3403L82.9294 47.7184L65.9545 46.127L50.5162 43.621L37.3095 40.3467L26.8465 36.4689L19.4749 32.1337L15.4141 27.579L14.719 22.9512" stroke="white" stroke-width="2" stroke-linecap="round" stroke-linejoin="round"/>
<path d="M9.04834 45.7617L9.70685 50.9566L13.9689 56.0966L21.7612 60.9806L32.8826 65.3706L46.9308 69.0656L63.3752 71.9008L81.5024 73.7117L100.489 74.4068L119.495 73.9495L137.64 72.3764L154.121 69.7607L168.206 66.2303L179.327 61.9683L187.138 57.1758L191.382 52.0724L192.04 46.8592" stroke="white" stroke-linecap="round" stroke-linejoin="round"/>
<path d="M4.78662 53.0227L9.21325 58.4737L17.3897 63.6503L29.0782 68.3147L43.8946 72.2474L61.2353 75.2656L80.3869 77.1862L100.471 77.9362L120.574 77.4423L139.744 75.7595L157.14 72.9791L171.974 69.2293L183.699 64.6929L191.876 59.6077L196.303 54.1934L196.924 48.6875" stroke="white" stroke-width="0.3" stroke-linecap="round" stroke-linejoin="round"/>
<path d="M157.834 76.9284L172.87 73.0871L184.724 68.4593L192.991 63.2644L197.455 57.7402" stroke="white" stroke-width="0.3" stroke-linecap="round" stroke-linejoin="round"/>
<path d="M2.93896 50.916L4.78644 53.0196" stroke="white" stroke-width="0.3" stroke-linecap="round" stroke-linejoin="round"/>
<path d="M3.5791 56.5508L8.04232 62.1115L16.292 67.3979L28.1268 72.1537L43.1261 76.178L60.6863 79.251L80.094 81.2265L100.453 81.9765L120.812 81.4826L140.219 79.7632L157.834 76.9279" stroke="white" stroke-width="0.3" stroke-linecap="round" stroke-linejoin="round"/>
<path d="M198.625 65.0583L194.125 70.7471L185.766 76.1066L173.748 80.8625L158.529 84.8135L140.695 87.7585L120.994 89.5328L100.361 90.045L79.7463 89.2584L60.0826 87.228L42.2846 84.0636L27.084 79.9113L15.1211 74.9908L6.76176 69.5581L2.26196 63.8145" stroke="white" stroke-width="0.3" stroke-linecap="round" stroke-linejoin="round"/>
<path d="M4.896 59.4414L9.32263 64.9656L17.4808 70.197L29.1327 74.9163L43.9309 78.904L61.2532 81.9587L80.3683 83.9159L100.416 84.6659L120.464 84.172L139.597 82.4709L156.956 79.6356L171.773 75.8492L183.48 71.258L191.638 66.0996L196.064 60.6304" stroke="white" stroke-width="0.3" stroke-linecap="round" stroke-linejoin="round"/>
<path d="M198.589 56.9541L197.985 62.6794L193.504 68.295L185.181 73.5814L173.254 78.2824L158.145 82.1786L140.421 85.087L120.885 86.843L100.398 87.3369L79.911 86.5686L60.3936 84.5565L42.7236 81.4286L27.6328 77.3312L15.7431 72.4839L7.43862 67.1244L2.95711 61.4539L2.31689 55.7285" stroke="white" stroke-width="0.3" stroke-linecap="round" stroke-linejoin="round"/>
<path d="M186.041 78.6835L173.986 83.4942L158.713 87.4818L140.805 90.4634L121.05 92.2377L100.343 92.7499L79.6369 91.9633L59.9183 89.9147L42.0471 86.7136L26.81 82.543L14.7922 77.5859" stroke="white" stroke-width="0.3" stroke-linecap="round" stroke-linejoin="round"/>
<path d="M117.026 45.1927L114.977 44.022L100.709 43.9489L86.4416 43.8574L84.4478 44.9732" stroke="white" stroke-width="0.3" stroke-linecap="round" stroke-linejoin="round"/>
<path d="M83.5693 44.4961L86.3497 46.1424L100.727 46.2338L115.105 46.307L117.867 44.6973" stroke="white" stroke-width="0.3" stroke-linecap="round" stroke-linejoin="round"/>
<path d="M35.8828 23.0605L36.5779 26.536L39.8156 29.9566L45.4678 33.176L53.4247 36.0478L63.3389 38.4623L74.8628 40.2915L87.5025 41.4622L100.709 41.9195L113.934 41.6268L126.574 40.6024L138.098 38.9013L148.03 36.6148L155.969 33.8162L161.639 30.67L164.859 27.286L165.536 23.8105" stroke="white" stroke-linecap="round" stroke-linejoin="round"/>
<path d="M190.632 40.7676L191.747 45.5783L192.04 46.8588" stroke="white" stroke-width="0.3" stroke-linecap="round" stroke-linejoin="round"/>
<path d="M10.6033 39.5054L14.2434 24.8902L14.7189 22.9513L17.2981 18.4515L22.9503 14.226L31.3828 10.4396L42.2116 7.18366L55.0342 4.58622L69.3568 2.70216L84.7036 1.58635L100.581 1.27539L116.458 1.76927L131.842 3.0497L146.201 5.0801L159.078 7.82388L169.962 11.2079L178.449 15.0858L184.157 19.3843L186.791 23.9207L187.23 25.878L190.632 40.7675" stroke="white" stroke-width="2" stroke-linecap="round" stroke-linejoin="round"/>
<path d="M9.04834 45.7617L9.3593 44.4813L10.6031 39.5059" stroke="white" stroke-width="0.3" stroke-linecap="round" stroke-linejoin="round"/>
<path d="M3.28638 54.0098L3.57905 56.5523L4.60339 58.4181L4.89606 59.4425" stroke="white" stroke-width="0.3" stroke-linecap="round" stroke-linejoin="round"/>
<path d="M10.6033 39.5059L7.16439 42.1765L4.14623 47.5177L2.93896 50.92L3.28651 54.0113" stroke="white" stroke-width="2" stroke-linecap="round" stroke-linejoin="round"/>
<path d="M197.711 55.3828L198.076 52.1268L196.924 48.688L193.851 43.2919L190.632 40.7676" stroke="white" stroke-width="2" stroke-linecap="round" stroke-linejoin="round"/>
<path d="M196.064 60.6326L196.375 59.6082L197.454 57.7425L197.71 55.3828" stroke="white" stroke-width="0.3" stroke-linecap="round" stroke-linejoin="round"/>
<path d="M1.78672 59.5339L1.64038 58.034L2.31718 55.7292L3.28665 54.0098" stroke="white" stroke-width="2" stroke-linecap="round" stroke-linejoin="round"/>
<path d="M2.75585 65.1488L2.26197 63.8135L1.78638 59.5332" stroke="white" stroke-width="0.3" stroke-linecap="round" stroke-linejoin="round"/>
<path d="M199.229 59.279V59.2607L198.589 56.9559L197.711 55.3828" stroke="white" stroke-width="2" stroke-linecap="round" stroke-linejoin="round"/>
<path d="M198.333 65.8075L198.625 65.0576L199.229 59.2773" stroke="white" stroke-width="0.3" stroke-linecap="round" stroke-linejoin="round"/>
<path d="M189.059 76.749L186.04 78.688L185.29 79.1087L173.328 83.8646L158.182 87.8339L140.439 90.7789L120.866 92.5532L100.343 93.0471L79.8195 92.2788L60.2655 90.2301L42.559 87.0656L27.4499 82.9134L15.5419 77.9929L14.7919 77.5905L11.353 75.3223" stroke="white" stroke-linecap="round" stroke-linejoin="round"/>
<path d="M199.064 60.8516L199.54 61.693L198.955 67.5464L194.437 73.29L189.059 76.7472" stroke="white" stroke-width="2" stroke-linecap="round" stroke-linejoin="round"/>
<path d="M11.353 75.3191L6.41419 72.0814L1.89609 66.3012L1.27417 60.4661L1.78634 59.5332" stroke="white" stroke-width="2" stroke-linecap="round" stroke-linejoin="round"/>
<path d="M40.9493 300.568L40.7481 299.068L40.1261 294.331L32.846 238.943L25.2731 181.324L17.3893 121.326L11.353 75.3223" stroke="white" stroke-width="2" stroke-linecap="round" stroke-linejoin="round"/>
<path d="M40.9497 300.564L43.8398 305.631L48.8884 310.405L55.9308 314.667L64.7291 318.234L74.936 320.942L86.1123 322.679L97.7826 323.338L109.471 322.899L120.666 321.399L130.891 318.893L139.726 315.491L146.805 311.375L151.908 306.692L154.817 301.662" stroke="white" stroke-width="2" stroke-linecap="round" stroke-linejoin="round"/>
<path d="M114.995 43.0533L100.709 42.9801L86.4412 42.8887" stroke="white" stroke-width="0.3" stroke-linecap="round" stroke-linejoin="round"/>
<path d="M163.761 28.3995L163.231 27.1191L159.133 23.0948L152.896 19.4365L144.774 16.2537L135.116 13.6562L124.269 11.7173L112.617 10.51L100.563 10.0527L88.5083 10.382L76.8564 11.4612L66.0276 13.2721L56.406 15.7598L48.321 18.8511L42.1018 22.4363L38.0227 26.4057L37.5471 27.5581" stroke="white" stroke-width="0.3" stroke-linecap="round" stroke-linejoin="round"/>
<path d="M165.536 23.81L163.743 20.3711L159.572 17.1151L153.28 14.1519L145.104 11.5544L135.372 9.45085L124.452 7.87775L112.727 6.88999L100.599 6.50586L88.4719 6.76195L76.7651 7.62166L65.8632 9.06672L56.1685 11.0605L48.0286 13.5665L41.7728 16.4566L37.6571 19.6577L35.8828 23.06" stroke="white" stroke-linecap="round" stroke-linejoin="round"/>
<path d="M162.481 29.7559L162.645 29.8107" stroke="white" stroke-width="0.3" stroke-linecap="round" stroke-linejoin="round"/>
<path d="M38.8091 28.896L38.9188 28.8594H38.9737" stroke="white" stroke-width="0.3" stroke-linecap="round" stroke-linejoin="round"/>
<path d="M191.144 42.3956L190.979 42.2676" stroke="white" stroke-width="0.3" stroke-linecap="round" stroke-linejoin="round"/>
<path d="M197.692 57.3935L197.528 57.1191" stroke="white" stroke-width="0.3" stroke-linecap="round" stroke-linejoin="round"/>
<path d="M3.65186 56.6445L3.63403 56.6624" stroke="white" stroke-width="0.3" stroke-linecap="round" stroke-linejoin="round"/>
<path d="M40.2835 298.822L12 77C12 77 101.412 115.332 189 77C179.876 131.771 157.979 276.914 154.33 301.56C130.608 338.074 45.7577 321.643 40.2835 298.822Z" fill="url(#paint0_linear_151_50)" fill-opacity="0.5"/>
<defs>
<linearGradient id="paint0_linear_151_50" x1="16.5619" y1="117.158" x2="148.041" y2="322.487" gradientUnits="userSpaceOnUse">
<stop stop-color="#E9E9E9"/>
<stop offset="1" stop-color="#C4C4C4" stop-opacity="0"/>
</linearGradient>
</defs>
</svg>
