<svg width="301" height="207" viewBox="0 0 301 207" fill="none" xmlns="http://www.w3.org/2000/svg">
<path d="M297.349 63.4772C296.871 59.1983 295.631 55.0751 293.705 51.3589C291.461 47.0245 288.639 43.1125 285.34 39.762C282.494 36.7743 279.426 34.0714 276.172 31.6833C272.553 28.9964 268.787 26.5764 264.896 24.4383C250 16.5869 234.278 10.9461 218.117 7.65507C201.992 4.19647 185.655 2.17511 169.253 1.60913C152.852 0.987484 136.433 1.65803 120.114 3.61585" stroke="white" stroke-linecap="round" stroke-linejoin="round"/>
<path d="M120.091 3.53711C98.7959 5.91308 77.8103 11.0545 57.5442 18.8608C47.423 22.813 37.7094 28.0033 28.5741 34.3407C20.0939 40.3868 10.8116 49.013 6.27356 59.8803" stroke="white" stroke-linecap="round" stroke-linejoin="round"/>
<path d="M116.172 202.093C108.245 200.464 100.465 198.013 92.9316 194.77C85.366 191.596 78.3001 187.055 72.0062 181.322" stroke="white" stroke-width="2" stroke-linecap="round" stroke-linejoin="round"/>
<path d="M235.1 176.162C227.275 183.983 218.203 190.025 208.376 193.961C198.623 198.079 188.524 201.048 178.237 202.822C173.103 203.734 167.947 204.386 162.744 204.829C157.541 205.272 152.384 205.428 147.159 205.376C136.766 205.3 126.398 204.201 116.172 202.092" stroke="white" stroke-width="2" stroke-linecap="round" stroke-linejoin="round"/>
<path d="M119.953 3.22385C133.938 1.55678 147.996 0.825913 162.056 1.03484C165.632 1.03484 169.207 1.19122 172.806 1.37364C176.404 1.55607 179.865 1.76428 183.394 2.07701C190.27 2.65035 197.146 3.45823 204.022 4.68308C210.898 5.90793 218.369 7.28926 225.451 9.03533C232.098 10.7032 238.653 12.684 245.139 15.0555C252.304 17.6159 259.297 20.7599 266.064 24.4634C267.623 25.3494 269.159 26.2355 270.648 27.0694C272.138 27.9034 273.559 28.9197 275.003 29.91C276.447 30.9003 277.707 31.8646 279.037 32.907C280.366 33.9494 281.558 34.9135 282.773 36.0081C285.887 38.7201 288.752 41.7849 291.322 45.1554C292.502 46.7124 293.59 48.358 294.576 50.0809C295.54 51.7374 296.383 53.4805 297.097 55.293C297.808 56.9707 298.39 58.7145 298.839 60.5052C299.294 62.2929 299.601 64.1251 299.756 65.9779C300.067 69.7307 299.788 73.5167 298.931 77.158C298.168 80.3546 297.035 83.4219 295.562 86.2792C294.776 87.8321 293.919 89.3369 292.995 90.7877C291.986 92.3253 290.932 93.7848 289.809 95.2182C287.313 98.3129 284.599 101.171 281.695 103.766C278.396 106.718 274.928 109.417 271.313 111.845C265.653 115.619 259.772 118.945 253.711 121.8C246.785 125.06 239.708 127.888 232.51 130.27C218.991 134.697 205.201 137.981 191.256 140.095" stroke="white" stroke-width="2" stroke-linecap="round" stroke-linejoin="round"/>
<path d="M277.249 107.467C276.579 113.02 275.427 118.485 273.811 123.781C272.197 129.083 270.14 134.196 267.669 139.052C265.212 143.914 262.382 148.518 259.212 152.812C256.039 157.102 252.566 161.093 248.829 164.748C245.103 168.41 241.151 171.763 237.003 174.781C234.94 176.293 232.831 177.726 230.7 179.082C228.568 180.437 226.345 181.688 224.099 182.991C221.853 184.294 219.676 185.336 217.407 186.405C215.138 187.473 212.823 188.515 210.531 189.48C208.239 190.444 205.947 191.304 203.655 192.086C201.363 192.868 198.888 193.675 196.481 194.379" stroke="white" stroke-width="2" stroke-linecap="round" stroke-linejoin="round"/>
<path d="M191.279 140.069C176.509 142.353 161.628 143.571 146.723 143.718C142.942 143.718 139.137 143.718 135.264 143.718C131.39 143.718 127.723 143.457 123.964 143.222C116.63 142.753 109.319 142.024 102.008 140.981C94.3296 139.913 86.6975 138.375 79.0882 136.707C72.052 135.065 65.1304 133.085 58.2546 130.661C54.2208 129.254 50.2328 127.69 46.2906 125.97C44.4342 125.136 42.5778 124.276 40.7671 123.364C38.9565 122.452 37.2833 121.592 35.5644 120.758C33.8454 119.924 32.2869 118.934 30.6826 117.944C29.0782 116.953 27.6572 116.015 26.0987 114.973C23.3419 113.077 20.6863 110.997 18.1457 108.744C14.6758 105.686 11.5231 102.189 8.74871 98.3199C6.36032 95.0001 4.42132 91.2935 2.99592 87.3224C1.74168 83.7092 1.06638 79.8699 1.00195 75.9861C0.962511 72.1774 1.52141 68.3913 2.65222 64.8059C3.73921 61.3773 5.21874 58.1266 7.0527 55.1375C9.06848 51.8574 11.3723 48.8185 13.9285 46.0681C16.7458 43.0025 19.7731 40.1965 22.9817 37.6767C26.5068 34.8897 30.1725 32.3402 33.96 30.0411C40.2209 26.2574 46.6989 22.9575 53.3498 20.164C60.6822 17.1193 68.1487 14.5098 75.7192 12.3458C90.169 8.16441 104.869 5.19411 119.701 3.45898" stroke="white" stroke-width="2" stroke-linecap="round" stroke-linejoin="round"/>
<path d="M111.932 197.141C107.05 196.046 102.214 194.717 97.4467 193.101C92.6624 191.505 87.9572 189.618 83.3514 187.446C78.7476 185.297 74.2692 182.817 69.9435 180.019C65.6004 177.239 61.441 174.104 57.4983 170.637C53.5476 167.192 49.8458 163.392 46.4282 159.275C44.7322 157.216 43.1279 155.079 41.5923 152.838C40.813 151.743 40.0567 150.597 39.3003 149.45C38.544 148.303 37.8564 147.104 37.1688 145.932C34.4687 141.175 32.1667 136.14 30.293 130.895C28.4077 125.65 26.9946 120.202 26.0758 114.633" stroke="white" stroke-width="2" stroke-linecap="round" stroke-linejoin="round"/>
<path d="M73.5394 182.68C119.539 207.68 177.539 206.68 228.539 182.68" stroke="white" stroke-width="2"/>
<path d="M297.539 66.1797C297.539 103.459 228.016 138.68 149.039 138.68C70.0627 138.68 3.53943 111.459 3.53943 74.1797C3.53943 36.9005 74.0627 1.67969 153.039 1.67969C232.016 1.67969 297.539 28.9005 297.539 66.1797Z" fill="url(#paint0_radial_221_126)" fill-opacity="0.3"/>
<ellipse cx="149.039" cy="71.1797" rx="143" ry="67.5" fill="url(#paint1_radial_221_126)"/>
<path d="M190.82 135.012C201.848 133.339 212.783 130.955 223.572 127.871C234.371 124.825 244.939 120.808 255.178 115.857C265.474 111.026 275.053 104.415 283.575 96.2595C285.796 94.0253 287.858 91.5942 289.74 88.9888C291.421 86.7415 292.895 84.3052 294.141 81.7178C295.547 78.794 296.567 75.6503 297.166 72.3882C297.676 69.4447 297.777 66.4282 297.464 63.4492" stroke="white" stroke-linecap="round" stroke-linejoin="round"/>
<path d="M6.27352 59.8789C4.2987 64.4516 3.3611 69.5133 3.54611 74.6033C3.84341 80.0531 5.37512 85.3229 7.99247 89.9009C10.2711 93.9384 13.0325 97.596 16.1975 100.768C19.9606 104.582 24.0535 107.952 28.4136 110.828C32.2122 113.354 36.1296 115.642 40.1483 117.682C44.5946 119.923 49.0869 121.903 53.6707 123.675C62.4366 127.009 71.3773 129.716 80.4405 131.78C98.5676 135.848 116.974 138.098 135.447 138.504C153.934 138.997 172.426 137.829 190.751 135.012" stroke="white" stroke-linecap="round" stroke-linejoin="round"/>
<defs>
<radialGradient id="paint0_radial_221_126" cx="0" cy="0" r="1" gradientUnits="userSpaceOnUse" gradientTransform="translate(155.039 138.68) rotate(-90) scale(202 586.858)">
<stop/>
<stop offset="1" stop-color="white"/>
</radialGradient>
<radialGradient id="paint1_radial_221_126" cx="0" cy="0" r="1" gradientUnits="userSpaceOnUse" gradientTransform="translate(154.539 133.68) rotate(-90) scale(68.5 199.009)">
<stop stop-color="#101010"/>
<stop offset="1" stop-color="#1A1A1A" stop-opacity="0"/>
</radialGradient>
</defs>
</svg>
