<svg width="174" height="330" viewBox="0 0 174 330" fill="none" xmlns="http://www.w3.org/2000/svg">
<rect x="17" y="3" width="139" height="13" fill="url(#paint0_linear_221_127)" fill-opacity="0.5"/>
<path d="M45.759 38.4832C45.7369 36.1596 44.9661 33.9049 43.5612 32.0544C42.1439 30.2219 40.2037 28.8632 37.9974 28.1582" stroke="white" stroke-width="2" stroke-linecap="round" stroke-linejoin="round"/>
<path d="M45.7589 63.8088C45.7449 61.5139 44.9831 59.2861 43.589 57.4636C42.1711 55.6439 40.2291 54.3033 38.0253 53.623" stroke="white" stroke-width="2" stroke-linecap="round" stroke-linejoin="round"/>
<path d="M72.7808 50.3205C72.7668 48.0256 72.0049 45.7978 70.6109 43.9753C69.1929 42.1556 67.2509 40.8151 65.0471 40.1348" stroke="white" stroke-width="2" stroke-linecap="round" stroke-linejoin="round"/>
<path d="M61.6155 80.5059H33.8802" stroke="white" stroke-width="2" stroke-linecap="round" stroke-linejoin="round"/>
<path d="M37.9974 28.1582C36.4024 27.6597 34.7182 27.5136 33.0612 27.7299C31.4042 27.9461 29.8139 28.5196 28.4001 29.4108C26.9677 30.3077 25.769 31.5326 24.9032 32.9843C24.0374 34.4359 23.5292 36.0727 23.4204 37.7597" stroke="white" stroke-width="2" stroke-linecap="round" stroke-linejoin="round"/>
<path d="M38.053 53.6225C36.4729 53.127 34.8042 52.9801 33.1618 53.1914C31.5194 53.4028 29.9423 53.9677 28.5391 54.8472C27.1041 55.7387 25.9048 56.9627 25.0429 58.4159C24.181 59.8692 23.6817 61.5089 23.5873 63.1961" stroke="white" stroke-width="2" stroke-linecap="round" stroke-linejoin="round"/>
<path d="M65.0749 40.1343C63.4948 39.6387 61.8261 39.4918 60.1837 39.7032C58.5413 39.9145 56.9642 40.4794 55.5609 41.3589C54.126 42.2504 52.9267 43.4744 52.0648 44.9277C51.2028 46.3809 50.7035 48.0207 50.6091 49.7078" stroke="white" stroke-width="2" stroke-linecap="round" stroke-linejoin="round"/>
<path d="M169.218 22.7598L160.706 313.023" stroke="white" stroke-width="2" stroke-linecap="round" stroke-linejoin="round"/>
<path d="M5.47738 312.828L2.0835 22.6484" stroke="white" stroke-width="2" stroke-linecap="round" stroke-linejoin="round"/>
<path d="M45.7589 37.9277V38.5956" stroke="white" stroke-width="2" stroke-linecap="round" stroke-linejoin="round"/>
<path d="M23.6152 62.6953C23.5303 65.0557 24.2568 67.3738 25.6738 69.2631C27.0647 71.141 29.0113 72.5335 31.2375 73.2429" stroke="white" stroke-width="2" stroke-linecap="round" stroke-linejoin="round"/>
<path d="M50.6371 49.207C50.5521 51.5674 51.2787 53.8855 52.6956 55.7748C54.0866 57.6528 56.0331 59.0453 58.2593 59.7546" stroke="white" stroke-width="2" stroke-linecap="round" stroke-linejoin="round"/>
<path d="M23.4484 37.3145C23.3522 39.7063 24.0679 42.0604 25.4791 43.9936C26.8531 45.913 28.8015 47.3455 31.0428 48.0845" stroke="white" stroke-width="2" stroke-linecap="round" stroke-linejoin="round"/>
<path d="M17.1057 36.0898C17.1057 36.5908 17.1057 37.0639 17.1057 37.537" stroke="white" stroke-width="2" stroke-linecap="round" stroke-linejoin="round"/>
<path d="M61.6155 80.5059H33.9081" stroke="white" stroke-width="2" stroke-linecap="round" stroke-linejoin="round"/>
<path d="M31.321 73.2427C32.9192 73.7388 34.6067 73.8787 36.2647 73.6528C37.9227 73.4268 39.5112 72.8405 40.9185 71.9348C42.336 71.0341 43.516 69.805 44.3585 68.3518C45.201 66.8986 45.6813 65.2641 45.7589 63.5859" stroke="white" stroke-width="2" stroke-linecap="round" stroke-linejoin="round"/>
<path d="M58.3429 59.7545C59.9411 60.2505 61.6285 60.3905 63.2866 60.1645C64.9446 59.9385 66.5331 59.3522 67.9404 58.4465C69.3579 57.5458 70.5378 56.3167 71.3804 54.8635C72.2229 53.4104 72.7031 51.7758 72.7808 50.0977" stroke="white" stroke-width="2" stroke-linecap="round" stroke-linejoin="round"/>
<path d="M31.1819 48.0856C32.8008 48.5868 34.5103 48.7245 36.1885 48.4888C37.8668 48.2531 39.4723 47.6498 40.8906 46.7219C42.3017 45.8144 43.4767 44.5839 44.3183 43.1321C45.16 41.6804 45.6443 40.0491 45.731 38.373" stroke="white" stroke-width="2" stroke-linecap="round" stroke-linejoin="round"/>
<path d="M23.5874 63.0302L23.643 62.3066" stroke="white" stroke-width="2" stroke-linecap="round" stroke-linejoin="round"/>
<path d="M23.4204 37.6489L23.476 36.9531" stroke="white" stroke-width="2" stroke-linecap="round" stroke-linejoin="round"/>
<path d="M17.0499 37.676C17.0221 37.1476 17.0221 36.6182 17.0499 36.0898" stroke="white" stroke-width="2" stroke-linecap="round" stroke-linejoin="round"/>
<path d="M17.2725 64.6153L17.0499 37.6484" stroke="white" stroke-width="2" stroke-linecap="round" stroke-linejoin="round"/>
<path d="M33.8803 80.5351C29.5747 80.5411 25.4279 78.9095 22.2799 75.971C20.7171 74.5246 19.4666 72.7736 18.6054 70.8257C17.7443 68.8778 17.2908 66.7744 17.2726 64.6445" stroke="white" stroke-width="2" stroke-linecap="round" stroke-linejoin="round"/>
<path d="M128.352 328.219C127.552 328.195 126.754 328.13 125.96 328.024C125.163 327.982 124.365 327.982 123.568 328.024C122.768 328.038 121.969 328.094 121.175 328.191C120.381 328.288 119.583 328.344 118.783 328.358" stroke="white" stroke-width="2" stroke-linecap="round" stroke-linejoin="round"/>
<path d="M93.6905 328.218C92.9086 328.194 92.1287 328.129 91.3538 328.023C90.5661 327.982 89.7769 327.982 88.9893 328.023" stroke="white" stroke-width="2" stroke-linecap="round" stroke-linejoin="round"/>
<path d="M88.9891 327.855H77.194" stroke="white" stroke-width="2" stroke-linecap="round" stroke-linejoin="round"/>
<path d="M77.1938 327.885C76.3876 327.843 75.5798 327.843 74.7736 327.885C73.9802 327.992 73.1816 328.057 72.3812 328.079" stroke="white" stroke-width="2" stroke-linecap="round" stroke-linejoin="round"/>
<path d="M17.1334 36.0905V35.9785" stroke="white" stroke-width="2" stroke-linecap="round" stroke-linejoin="round"/>
<path d="M2.58423 17.6106C2.86509 15.576 3.5257 13.6122 4.53157 11.8218C5.52659 10.0337 6.83664 8.44049 8.39841 7.11873C11.5113 4.48511 15.4491 3.02759 19.5259 3" stroke="white" stroke-width="2" stroke-linecap="round" stroke-linejoin="round"/>
<path d="M151.303 3C153.038 3.00924 154.763 3.27183 156.422 3.77931C158.091 4.27358 159.669 5.03464 161.095 6.03333C163.993 8.00665 166.186 10.8536 167.354 14.1597" stroke="white" stroke-width="2" stroke-linecap="round" stroke-linejoin="round"/>
<path d="M19.6927 3H151.303" stroke="white" stroke-width="2" stroke-linecap="round" stroke-linejoin="round"/>
<path d="M168.245 16.6094C168.946 18.5909 169.267 20.6869 169.19 22.7875" stroke="white" stroke-width="2" stroke-linecap="round" stroke-linejoin="round"/>
<path d="M160.706 313.051C160.628 315.113 160.138 317.139 159.263 319.008C158.389 320.877 157.148 322.551 155.615 323.932C152.517 326.703 148.504 328.23 144.348 328.218" stroke="white" stroke-width="2" stroke-linecap="round" stroke-linejoin="round"/>
<path d="M2.05567 22.648C2.05501 21.7918 2.11076 20.9367 2.22258 20.0879" stroke="white" stroke-width="2" stroke-linecap="round" stroke-linejoin="round"/>
<path d="M21.7236 328.218C19.6505 328.227 17.594 327.849 15.6591 327.105C13.7152 326.364 11.9306 325.259 10.4013 323.849C8.85811 322.431 7.62229 320.712 6.77052 318.797C5.91875 316.882 5.46926 314.813 5.44971 312.717" stroke="white" stroke-width="2" stroke-linecap="round" stroke-linejoin="round"/>
<path d="M167.382 14.1328L168.245 16.5818" stroke="white" stroke-width="2" stroke-linecap="round" stroke-linejoin="round"/>
<path d="M2.25049 20.0608L2.58431 17.584" stroke="white" stroke-width="2" stroke-linecap="round" stroke-linejoin="round"/>
<path d="M72.3813 328.219H21.7235" stroke="white" stroke-width="2" stroke-linecap="round" stroke-linejoin="round"/>
<path d="M118.783 328.219H93.6904" stroke="white" stroke-width="2" stroke-linecap="round" stroke-linejoin="round"/>
<path d="M144.376 328.219H128.38" stroke="white" stroke-width="2" stroke-linecap="round" stroke-linejoin="round"/>
<path d="M45.7866 63.1973V63.8095" stroke="white" stroke-width="2" stroke-linecap="round" stroke-linejoin="round"/>
<path d="M72.8085 49.709V50.3212" stroke="white" stroke-width="2" stroke-linecap="round" stroke-linejoin="round"/>
<path d="M78.0563 37.7325C78.0675 35.6202 77.6462 33.5281 76.8185 31.5849C75.9909 29.6417 74.7744 27.8885 73.2438 26.4335C70.1615 23.4764 66.053 21.8307 61.7825 21.8419" stroke="white" stroke-width="2" stroke-linecap="round" stroke-linejoin="round"/>
<path d="M61.7824 21.8418H33.6577" stroke="white" stroke-width="2" stroke-linecap="round" stroke-linejoin="round"/>
<path d="M33.5465 21.8418C29.2798 21.8507 25.1785 23.4936 22.0852 26.4334C20.5598 27.8924 19.3467 29.6464 18.5194 31.5886C17.6921 33.5309 17.268 35.6212 17.2726 37.7324" stroke="white" stroke-width="2" stroke-linecap="round" stroke-linejoin="round"/>
<path d="M17.3838 37.7324L17.6063 64.7272" stroke="white" stroke-width="2" stroke-linecap="round" stroke-linejoin="round"/>
<path d="M17.5786 64.7266C17.6012 66.8192 18.0493 68.8855 18.8959 70.7993C19.7424 72.7131 20.9696 74.4344 22.5026 75.8584C25.5964 78.7278 29.6615 80.319 33.8803 80.3114" stroke="white" stroke-width="2" stroke-linecap="round" stroke-linejoin="round"/>
<path d="M33.8802 80.2832H61.6155" stroke="white" stroke-width="2" stroke-linecap="round" stroke-linejoin="round"/>
<path d="M61.6155 80.2841C65.8247 80.2846 69.8789 78.6939 72.9657 75.8311C74.4987 74.407 75.7256 72.6858 76.5721 70.772C77.4186 68.8582 77.8668 66.7919 77.8893 64.6992" stroke="white" stroke-width="2" stroke-linecap="round" stroke-linejoin="round"/>
<path d="M77.8894 64.7272L78.0841 37.7324" stroke="white" stroke-width="2" stroke-linecap="round" stroke-linejoin="round"/>
<path d="M61.6155 80.5898H33.9081" stroke="white" stroke-width="2" stroke-linecap="round" stroke-linejoin="round"/>
<path d="M13.3779 316.363C13.3948 317.382 13.6324 318.384 14.0742 319.302C14.5161 320.22 15.1517 321.031 15.9372 321.679C17.501 322.979 19.4673 323.697 21.5009 323.71" stroke="#6A6A6A" stroke-linecap="round" stroke-linejoin="round"/>
<path d="M21.5845 323.738H144.821" stroke="#6A6A6A" stroke-linecap="round" stroke-linejoin="round"/>
<path d="M153.167 316.389L161.151 24.707" stroke="url(#paint1_linear_221_127)" stroke-linecap="round" stroke-linejoin="round"/>
<path d="M161.123 24.7356C161.167 23.6045 160.971 22.4773 160.549 21.427C160.128 20.3768 159.489 19.4274 158.675 18.641C157.039 17.0437 154.841 16.1541 152.555 16.1641" stroke="white" stroke-linecap="round" stroke-linejoin="round"/>
<path d="M152.583 16.1367H19.3033" stroke="white" stroke-linecap="round" stroke-linejoin="round"/>
<path d="M19.3033 16.1642C17.0004 16.1514 14.7838 17.0404 13.1275 18.6411C12.3086 19.4292 11.6593 20.376 11.2192 21.424C10.7791 22.472 10.5576 23.5989 10.5682 24.7356" stroke="white" stroke-linecap="round" stroke-linejoin="round"/>
<path d="M10.5682 24.707L13.3779 316.389" stroke="url(#paint2_linear_221_127)" stroke-linecap="round" stroke-linejoin="round"/>
<path d="M144.821 323.765C146.854 323.745 148.818 323.028 150.385 321.734C151.196 321.093 151.864 320.289 152.343 319.373C152.822 318.457 153.103 317.45 153.167 316.418" stroke="#6A6A6A" stroke-linecap="round" stroke-linejoin="round"/>
<path d="M3.41885 137.557H2.97375" stroke="white" stroke-width="2" stroke-linecap="round" stroke-linejoin="round"/>
<path d="M166.826 103.855H166.966" stroke="white" stroke-width="2" stroke-linecap="round" stroke-linejoin="round"/>
<path d="M166.103 129.098H166.214" stroke="white" stroke-width="2" stroke-linecap="round" stroke-linejoin="round"/>
<path d="M2.72339 111.092H3.11285" stroke="white" stroke-width="2" stroke-linecap="round" stroke-linejoin="round"/>
<path d="M2.94585 137.557C2.84176 137.557 2.73929 137.532 2.64718 137.483C2.55508 137.435 2.47612 137.365 2.41729 137.279C2.36546 137.078 2.36546 136.867 2.41729 136.667C2.41729 136.249 2.41729 135.832 2.41729 135.414" stroke="white" stroke-width="2" stroke-linecap="round" stroke-linejoin="round"/>
<path d="M2.25049 135.386L2.00012 114.736" stroke="white" stroke-width="2" stroke-linecap="round" stroke-linejoin="round"/>
<path d="M2 114.765C2 114.098 2 113.429 2 112.761C2 112.483 2 112.01 2 111.76C2.00036 111.676 2.01796 111.593 2.05145 111.517C2.08494 111.44 2.13363 111.371 2.19475 111.314C2.24938 111.25 2.31784 111.2 2.39494 111.166C2.47203 111.132 2.55586 111.116 2.63995 111.12" stroke="white" stroke-width="2" stroke-linecap="round" stroke-linejoin="round"/>
<path d="M167.299 123.252C167.326 123.669 167.326 124.088 167.299 124.504C167.276 124.711 167.21 124.91 167.104 125.089C167.044 125.182 166.962 125.259 166.865 125.312C166.767 125.366 166.659 125.394 166.548 125.395" stroke="white" stroke-width="2" stroke-linecap="round" stroke-linejoin="round"/>
<path d="M167.772 107.418L167.327 123.225" stroke="white" stroke-width="2" stroke-linecap="round" stroke-linejoin="round"/>
<path d="M167.076 103.856C167.24 103.852 167.4 103.912 167.521 104.022C167.641 104.147 167.727 104.301 167.772 104.468C167.772 104.718 167.772 105.191 167.772 105.442C167.772 105.692 167.772 106.778 167.772 107.446" stroke="white" stroke-width="2" stroke-linecap="round" stroke-linejoin="round"/>
<path d="M166.492 125.367H166.214" stroke="white" stroke-width="2" stroke-linecap="round" stroke-linejoin="round"/>
<path d="M167.048 132.688L166.575 148.3" stroke="white" stroke-width="2" stroke-linecap="round" stroke-linejoin="round"/>
<path d="M166.548 148.299C166.589 148.715 166.589 149.135 166.548 149.551C166.534 149.76 166.466 149.961 166.353 150.136C166.293 150.218 166.213 150.284 166.121 150.328C166.028 150.372 165.926 150.392 165.824 150.386" stroke="white" stroke-width="2" stroke-linecap="round" stroke-linejoin="round"/>
<path d="M166.186 129.098C166.361 129.107 166.528 129.176 166.659 129.293C166.765 129.412 166.842 129.555 166.882 129.71C166.909 130.044 166.909 130.379 166.882 130.712C166.923 131.379 166.923 132.048 166.882 132.716" stroke="white" stroke-width="2" stroke-linecap="round" stroke-linejoin="round"/>
<path d="M165.769 150.387H165.463" stroke="white" stroke-width="2" stroke-linecap="round" stroke-linejoin="round"/>
<rect x="156.484" y="0.414062" width="22" height="15.4484" transform="rotate(38.2127 156.484 0.414062)" fill="url(#paint3_radial_221_127)"/>
<rect width="22" height="15.4484" transform="matrix(0.78572 -0.618583 -0.618583 -0.78572 9.55615 26.1602)" fill="url(#paint4_radial_221_127)"/>
<defs>
<linearGradient id="paint0_linear_221_127" x1="95.265" y1="3" x2="95.265" y2="16" gradientUnits="userSpaceOnUse">
<stop stop-color="#313131" stop-opacity="0.53"/>
<stop offset="1" stop-color="#D2D2D2" stop-opacity="0.79"/>
</linearGradient>
<linearGradient id="paint1_linear_221_127" x1="157.159" y1="24.707" x2="157.159" y2="394" gradientUnits="userSpaceOnUse">
<stop stop-color="white"/>
<stop offset="1" stop-color="white" stop-opacity="0"/>
</linearGradient>
<linearGradient id="paint2_linear_221_127" x1="11.9731" y1="24.707" x2="11.9731" y2="394" gradientUnits="userSpaceOnUse">
<stop stop-color="white"/>
<stop offset="1" stop-color="white" stop-opacity="0"/>
</linearGradient>
<radialGradient id="paint3_radial_221_127" cx="0" cy="0" r="1" gradientUnits="userSpaceOnUse" gradientTransform="translate(167.484 8.13828) rotate(90) scale(7.72422 11)">
<stop stop-color="#C4C4C4"/>
<stop offset="1" stop-color="#C4C4C4" stop-opacity="0"/>
</radialGradient>
<radialGradient id="paint4_radial_221_127" cx="0" cy="0" r="1" gradientUnits="userSpaceOnUse" gradientTransform="translate(11 7.72422) rotate(90) scale(7.72422 11)">
<stop stop-color="#C4C4C4"/>
<stop offset="1" stop-color="#C4C4C4" stop-opacity="0"/>
</radialGradient>
</defs>
</svg>
